# xmcd CD database file
# Copyright (C) 1995-1998 Ti Kan
#
# Track frame offsets:
#	150
#	22453
#	44809
#	71270
#	90787
#	105279
#	124152
#	137155
#	151344
#	167694
#	179545
#	191896
#	206533
#	224374
#	236636
#	249119
#	261049
#	278223
#	294028
#	314287
#
# Disc length: 4382 seconds
#
# Revision: 1
# Processed by: cddbd v1.5.1PL0 Copyright (c) Steve Scherf et al.
# Submitted via: CDex 1.30Release
#
DISCID=20111c14
DTITLE=CREAM - Those were the Days CD 2
DYEAR=1997
DGENRE=Blues
TTITLE0=White Room
TTITLE1=Sitting on Top of the World
TTITLE2=Passing the Time
TTITLE3=As you said
TTITLE4=Pressed Rat and Warthog
TTITLE5=Politician
TTITLE6=Those were the Days
TTITLE7=Born under a bad Sign
TTITLE8=Deserted Cities of the Heart
TTITLE9=Anyone for Tennis
TTITLE10=Badge
TTITLE11=Doing that Scrapyard Thing
TTITLE12=What a Bringdown
TTITLE13=The Coffee Song
TTITLE14=Lawdy Mama Version 2
TTITLE15=You make me feel (Demo)
TTITLE16=We're going wrong (Demo)
TTITLE17=Hey now Princess
TTITLE18=Swalabr (Demo)
TTITLE19=Weird of Hermiston (Demo)
EXTD=YEAR: 1997 ID3G:   0
EXTT0=
EXTT1=
EXTT2=
EXTT3=
EXTT4=
EXTT5=
EXTT6=
EXTT7=
EXTT8=
EXTT9=
EXTT10=
EXTT11=
EXTT12=
EXTT13=
EXTT14=
EXTT15=
EXTT16=
EXTT17=
EXTT18=
EXTT19=
PLAYORDER=
